<!DOCTYPE svg PUBLIC "-//W3C//DTD SVG 20010904//EN" "http://www.w3.org/TR/2001/REC-SVG-20010904/DTD/svg10.dtd">
<svg version="1.0" xmlns="http://www.w3.org/2000/svg" width="927px" height="504px" viewBox="0 0 9270 5040" preserveAspectRatio="xMidYMid meet">
<g id="layer101" fill="#073591" stroke="none">
 <path d="M10 2520 l0 -2510 4625 0 4625 0 0 2510 0 2510 -4625 0 -4625 0 0 -2510z"/>
 </g>
<g id="layer102" fill="#727eba" stroke="none">
 <path d="M10 2520 l0 -2510 4625 0 4625 0 0 2510 0 2510 -4625 0 -4625 0 0 -2510z m7074 2465 c4 -11 22 -15 69 -15 45 0 68 -5 77 -15 8 -9 30 -15 60 -15 31 0 52 -5 61 -16 9 -12 24 -15 51 -11 25 3 41 0 49 -9 6 -8 26 -14 44 -14 18 0 38 -7 45 -15 7 -8 20 -15 30 -15 10 0 23 -7 30 -15 7 -8 28 -15 47 -15 21 0 36 -6 39 -15 4 -8 17 -15 30 -15 14 0 27 -7 30 -15 4 -8 16 -15 29 -15 13 0 25 -7 29 -15 3 -8 14 -15 24 -15 10 0 28 -10 40 -22 l21 -23 0 -1778 c1 -978 3 -1783 6 -1788 4 -5 157 -9 365 -9 317 0 359 2 364 16 3 9 6 678 7 1487 0 810 4 1463 9 1452 4 -11 24 -36 44 -54 20 -19 36 -42 36 -51 0 -9 14 -29 30 -45 17 -16 30 -36 30 -45 0 -9 14 -29 30 -45 17 -16 30 -36 30 -46 0 -9 7 -22 15 -29 8 -7 15 -17 15 -23 0 -15 40 -96 51 -103 5 -3 9 -14 9 -25 0 -10 5 -19 10 -19 6 0 10 -9 10 -19 0 -11 7 -26 15 -35 8 -8 15 -30 15 -49 0 -22 6 -37 15 -41 8 -3 15 -14 15 -24 0 -11 7 -25 15 -32 8 -7 15 -27 15 -45 0 -18 7 -38 15 -45 11 -9 15 -27 14 -56 -2 -29 3 -49 14 -62 10 -11 17 -35 17 -59 0 -24 6 -46 15 -53 10 -9 15 -32 15 -74 0 -34 5 -67 10 -72 15 -15 15 -763 1 -777 -6 -6 -11 -37 -11 -68 0 -41 -5 -63 -17 -74 -11 -12 -16 -31 -14 -60 1 -28 -3 -46 -14 -55 -9 -8 -15 -29 -15 -55 0 -26 -6 -48 -15 -55 -8 -7 -15 -29 -15 -50 0 -24 -5 -40 -15 -44 -8 -3 -15 -16 -15 -30 0 -13 -7 -26 -15 -30 -8 -3 -15 -18 -15 -34 0 -27 -26 -88 -50 -117 -6 -8 -9 -18 -6 -23 3 -5 -3 -17 -14 -27 -10 -9 -16 -22 -14 -29 3 -7 -2 -19 -11 -26 -8 -7 -15 -20 -15 -30 0 -10 -7 -23 -15 -30 -8 -7 -15 -20 -15 -29 0 -10 -13 -30 -30 -46 -16 -16 -30 -36 -30 -45 0 -9 -13 -29 -30 -45 -16 -16 -30 -36 -30 -45 0 -9 -20 -36 -45 -59 -25 -23 -43 -47 -39 -52 7 -12 -378 -399 -396 -399 -7 0 -35 -20 -61 -45 -26 -25 -54 -45 -62 -45 -7 0 -24 -11 -37 -25 -13 -14 -29 -25 -36 -25 -7 0 -29 -14 -47 -30 -19 -17 -41 -30 -50 -30 -8 0 -20 -7 -27 -15 -7 -8 -20 -15 -30 -15 -10 0 -23 -7 -30 -15 -7 -8 -20 -15 -30 -15 -10 0 -23 -7 -30 -15 -7 -8 -21 -15 -32 -15 -10 0 -21 -7 -24 -15 -4 -8 -16 -15 -29 -15 -12 0 -28 -7 -35 -15 -7 -9 -20 -14 -29 -12 -9 2 -40 -10 -69 -25 -29 -15 -65 -28 -81 -28 -16 0 -34 -7 -41 -15 -8 -10 -30 -15 -62 -15 -34 0 -50 -4 -54 -15 -4 -10 -21 -15 -54 -15 -30 0 -52 -6 -60 -15 -9 -10 -32 -15 -75 -15 -43 0 -66 -5 -75 -15 -19 -23 -741 -23 -760 0 -9 10 -32 15 -75 15 -43 0 -66 5 -75 15 -8 9 -30 15 -60 15 -30 0 -52 6 -60 15 -7 9 -29 15 -55 15 -26 0 -47 6 -56 16 -8 10 -21 13 -37 9 -13 -3 -30 -1 -37 5 -31 25 -105 58 -122 54 -11 -3 -25 2 -32 10 -8 9 -21 16 -31 16 -10 0 -23 7 -30 15 -7 8 -20 15 -30 15 -10 0 -20 7 -24 15 -3 8 -11 15 -18 15 -16 0 -96 39 -104 51 -3 5 -12 9 -21 9 -8 0 -31 14 -50 30 -18 17 -40 30 -47 30 -7 0 -23 11 -36 25 -13 14 -31 25 -40 25 -9 0 -36 20 -60 45 -24 25 -51 45 -59 45 -21 0 -401 380 -401 400 0 9 -20 36 -45 60 -46 45 -56 74 -30 84 8 3 15 16 15 28 0 13 8 28 18 35 19 12 182 328 182 354 0 16 31 82 50 104 7 8 10 22 6 30 -3 9 3 32 14 53 11 20 17 44 14 54 -3 9 3 32 12 50 10 18 17 43 15 54 -1 12 5 39 13 59 9 21 16 61 16 90 0 35 5 57 15 65 22 18 22 762 0 800 -8 14 -14 48 -15 76 0 35 -5 56 -16 65 -11 9 -14 23 -10 48 4 25 0 44 -15 68 -14 22 -19 42 -15 58 4 17 0 34 -15 54 -12 16 -18 34 -15 40 4 6 -1 26 -10 43 -40 76 -44 87 -44 111 0 14 -4 29 -10 32 -11 7 -110 209 -110 225 0 6 -4 10 -10 10 -5 0 -13 12 -16 27 -4 15 -17 36 -30 45 -12 10 -25 30 -28 45 -4 16 -17 36 -29 45 -18 14 -20 19 -9 29 6 7 12 20 12 29 0 9 20 36 45 60 25 24 45 51 45 60 0 20 381 400 401 400 9 0 35 20 58 45 23 25 49 45 59 45 9 0 30 14 46 30 16 17 35 30 42 30 7 0 25 11 40 25 15 14 32 25 39 25 7 0 18 7 25 15 7 8 20 15 30 15 10 0 23 7 30 15 7 8 20 15 30 15 10 0 23 7 30 15 7 8 20 15 30 15 10 0 23 7 30 15 7 8 20 15 30 15 10 0 23 7 30 15 7 8 27 15 45 15 18 0 38 7 45 15 7 8 19 15 27 15 8 0 21 7 29 15 9 8 29 15 45 15 17 0 37 7 45 15 11 11 27 13 53 9 27 -4 40 -2 50 10 8 10 29 16 55 16 23 0 51 7 62 15 11 8 42 14 75 15 38 0 61 5 69 15 11 13 67 15 390 15 327 0 379 -2 384 -15z"/>
 <path d="M5023 3885 c-13 -10 -9 -28 32 -136 26 -68 62 -164 80 -214 70 -191 109 -297 185 -500 43 -115 82 -222 86 -238 3 -15 10 -30 15 -33 5 -3 9 -13 9 -22 0 -9 7 -30 15 -46 8 -15 15 -33 15 -39 0 -10 44 -138 77 -222 8 -22 22 -58 30 -80 9 -22 22 -54 29 -72 8 -17 14 -36 14 -42 0 -6 7 -25 14 -43 8 -18 36 -91 61 -163 26 -71 51 -139 55 -150 10 -27 37 -96 56 -147 9 -24 22 -58 30 -76 8 -18 14 -38 14 -44 0 -11 44 -129 77 -205 7 -17 13 -37 13 -45 0 -8 3 -17 6 -21 3 -3 19 -43 35 -88 16 -45 36 -93 44 -105 l15 -24 409 0 c315 0 411 3 419 13 5 6 17 32 25 57 9 25 26 70 37 100 12 30 25 66 30 80 5 14 18 50 30 80 12 30 25 66 30 80 5 14 23 63 40 110 18 47 36 99 42 115 5 17 16 44 23 60 7 17 21 55 31 85 9 30 21 59 25 65 5 5 9 16 9 25 0 8 6 26 13 40 7 14 24 58 36 98 13 40 28 75 32 78 5 3 9 14 9 24 0 11 6 34 14 52 38 87 46 107 65 163 46 136 101 293 119 340 11 28 29 77 41 110 12 33 28 76 36 95 8 19 39 105 70 190 31 85 63 172 71 193 8 20 20 54 28 75 63 164 146 395 146 407 0 8 -8 19 -18 24 -10 5 -167 9 -366 9 l-349 0 -24 -26 c-12 -14 -23 -34 -23 -44 0 -11 -5 -29 -12 -41 -6 -12 -15 -35 -19 -52 -9 -37 -125 -375 -131 -380 -3 -3 -771 -8 -928 -6 -44 1 -46 2 -61 44 -9 23 -26 71 -37 107 -11 36 -41 124 -67 195 -26 72 -50 143 -52 158 -4 18 -14 32 -28 37 -35 13 -703 8 -722 -5z m1707 -1093 c0 -10 -4 -22 -8 -27 -12 -14 -52 -137 -52 -161 0 -11 -4 -24 -9 -29 -5 -6 -23 -55 -41 -110 -18 -55 -38 -116 -46 -135 -17 -44 -112 -324 -126 -369 -14 -48 -27 -29 -67 99 -18 58 -37 114 -42 125 -15 33 -129 368 -138 405 -5 19 -23 73 -39 119 -17 47 -29 89 -26 93 3 4 138 8 300 8 276 0 294 -1 294 -18z"/>
 </g>
<g id="layer103" fill="#fdfefd" stroke="none">
 <path d="M0 2520 l0 -2520 4635 0 4635 0 0 2520 0 2520 -4635 0 -4635 0 0 -2520z m7090 2485 c8 -10 31 -15 70 -15 39 0 62 -5 70 -15 8 -9 30 -15 60 -15 30 0 52 -6 60 -15 8 -9 30 -15 60 -15 30 0 52 -6 60 -15 7 -8 28 -15 46 -15 19 0 34 -4 34 -10 0 -5 12 -13 27 -16 15 -4 34 -13 41 -21 7 -7 26 -13 42 -13 16 0 32 -4 35 -10 3 -5 14 -10 24 -10 10 0 24 -7 31 -15 7 -8 20 -15 30 -15 10 0 23 -7 30 -15 7 -8 20 -15 29 -15 10 0 27 -10 39 -23 l22 -23 2 -1785 3 -1784 353 -3 352 -2 0 1490 c0 1483 0 1490 20 1490 13 0 20 -7 20 -20 0 -12 20 -43 45 -69 25 -26 45 -55 45 -63 0 -8 14 -27 30 -43 17 -16 30 -37 30 -46 0 -10 10 -26 23 -36 13 -10 27 -31 31 -46 3 -15 11 -27 16 -27 6 0 10 -8 10 -19 0 -10 7 -24 15 -31 8 -7 15 -20 15 -30 0 -10 7 -23 15 -30 8 -7 15 -20 15 -30 0 -10 7 -23 15 -30 8 -7 15 -20 15 -30 0 -10 7 -23 15 -30 8 -7 15 -28 15 -46 0 -19 4 -34 10 -34 5 0 13 -12 16 -27 4 -15 14 -34 21 -42 9 -8 12 -23 9 -37 -4 -13 0 -29 9 -38 8 -8 15 -32 15 -53 0 -22 7 -48 15 -59 8 -10 15 -40 15 -65 0 -29 6 -51 15 -59 10 -8 15 -31 15 -70 0 -39 5 -62 15 -70 13 -11 15 -68 15 -402 0 -333 -2 -392 -15 -404 -10 -10 -15 -35 -15 -73 0 -40 -5 -63 -15 -71 -9 -8 -15 -30 -15 -60 0 -30 -6 -52 -15 -60 -9 -8 -15 -29 -15 -56 0 -23 -4 -46 -10 -49 -5 -3 -10 -21 -10 -40 0 -19 -4 -36 -9 -39 -16 -10 -51 -91 -51 -118 0 -14 -7 -31 -15 -38 -8 -7 -15 -20 -15 -30 0 -10 -7 -23 -15 -30 -8 -7 -15 -21 -15 -32 0 -10 -7 -21 -15 -24 -8 -4 -15 -16 -15 -29 0 -13 -7 -25 -15 -29 -8 -3 -15 -17 -15 -31 0 -14 -4 -25 -10 -25 -5 0 -12 -11 -16 -24 -3 -13 -17 -34 -30 -47 -13 -12 -24 -28 -24 -35 0 -7 -13 -29 -30 -47 -16 -19 -30 -41 -30 -49 0 -7 -20 -34 -45 -58 -25 -24 -45 -51 -45 -59 0 -21 -390 -411 -410 -411 -9 0 -34 -18 -55 -40 -21 -22 -46 -40 -55 -40 -9 0 -29 -14 -45 -30 -16 -17 -36 -30 -45 -30 -9 0 -29 -14 -45 -30 -16 -17 -35 -30 -43 -30 -7 0 -20 -7 -28 -15 -9 -8 -24 -15 -35 -15 -10 0 -19 -4 -19 -8 0 -9 -69 -42 -87 -42 -6 0 -16 -7 -23 -15 -7 -8 -20 -15 -30 -15 -10 0 -23 -7 -30 -15 -7 -8 -27 -15 -45 -15 -18 0 -38 -7 -45 -15 -7 -8 -20 -15 -30 -15 -10 0 -23 -7 -30 -15 -7 -8 -26 -15 -42 -15 -16 0 -36 -7 -44 -15 -9 -9 -34 -15 -58 -15 -27 0 -48 -6 -56 -15 -8 -9 -30 -15 -60 -15 -30 0 -52 -6 -60 -15 -8 -10 -31 -15 -69 -15 -31 0 -62 -5 -67 -10 -15 -15 -772 -16 -787 -1 -6 6 -39 11 -74 11 -47 0 -65 4 -69 15 -4 10 -21 15 -54 15 -30 0 -52 6 -60 15 -8 9 -30 15 -60 15 -30 0 -52 6 -60 15 -7 8 -27 15 -45 15 -18 0 -38 7 -45 15 -7 8 -20 15 -30 15 -10 0 -20 7 -24 15 -3 10 -19 15 -45 15 -25 0 -41 5 -45 15 -3 8 -11 15 -19 15 -23 0 -272 128 -292 150 -10 11 -26 20 -35 20 -9 0 -27 14 -40 30 -13 17 -31 30 -41 30 -9 0 -35 18 -57 40 -21 22 -45 40 -53 40 -19 0 -409 391 -409 410 0 9 -25 40 -55 70 -36 35 -55 49 -55 38 0 -9 -22 -38 -50 -65 -27 -26 -50 -55 -50 -63 0 -19 -387 -410 -405 -410 -7 0 -34 -20 -61 -45 -26 -25 -55 -45 -65 -45 -9 0 -20 -7 -23 -15 -3 -9 -22 -23 -43 -31 -20 -9 -45 -27 -55 -40 -11 -13 -28 -24 -38 -24 -9 0 -23 -7 -30 -15 -7 -8 -18 -15 -24 -15 -13 0 -202 -94 -221 -110 -7 -6 -19 -8 -28 -5 -8 4 -41 -7 -72 -24 -32 -17 -68 -31 -80 -31 -12 0 -28 -7 -35 -15 -8 -9 -30 -15 -60 -15 -30 0 -52 -6 -60 -15 -8 -9 -30 -15 -60 -15 -33 0 -50 -5 -54 -15 -4 -11 -22 -15 -68 -15 -39 -1 -70 -6 -82 -15 -30 -23 -758 -22 -776 0 -8 10 -31 15 -64 15 -28 1 -62 7 -76 15 -14 8 -44 14 -66 15 -24 0 -47 6 -54 15 -7 9 -30 15 -54 15 -22 0 -50 7 -60 15 -11 8 -30 15 -41 15 -12 0 -44 12 -71 27 -27 14 -64 29 -82 32 l-33 6 1 954 c0 524 3 957 6 962 3 5 241 9 529 9 l525 0 2 -503 3 -502 345 0 345 0 0 1370 0 1370 -345 0 -345 0 -5 -600 -5 -600 -525 0 -525 0 -3 595 c-1 327 -6 598 -10 602 -8 8 -700 13 -708 5 -2 -2 -4 -709 -4 -1570 0 -1482 -1 -1567 -17 -1567 -22 0 -223 199 -223 220 0 9 -18 34 -40 55 -22 21 -40 45 -40 52 0 7 -14 28 -30 46 -17 19 -30 41 -30 49 0 8 -13 27 -30 43 -16 16 -30 36 -30 46 0 9 -7 22 -15 29 -8 7 -15 20 -15 30 0 10 -7 23 -15 30 -8 7 -15 21 -15 31 0 11 -4 19 -10 19 -5 0 -10 9 -10 19 0 11 -6 26 -12 33 -24 26 -48 80 -48 108 0 15 -7 33 -15 40 -8 7 -15 20 -15 30 0 10 -7 23 -15 30 -8 7 -15 27 -15 45 0 18 -7 38 -15 45 -9 7 -15 30 -15 54 0 22 -7 50 -15 60 -8 11 -15 36 -15 57 0 20 -7 50 -15 65 -8 16 -15 52 -15 80 0 27 -5 55 -10 60 -7 7 -11 143 -11 392 0 323 2 385 15 403 10 15 13 36 9 68 -4 36 -1 51 11 63 10 10 16 33 16 61 0 27 6 49 15 57 10 8 15 30 15 62 0 34 4 50 15 54 8 4 15 18 15 34 0 15 14 52 30 83 17 31 30 67 30 81 0 13 7 29 15 36 8 7 15 17 15 24 0 24 133 277 151 286 10 6 19 20 19 30 0 11 14 34 30 52 17 17 30 37 30 45 0 8 13 26 29 41 16 15 40 45 53 67 31 50 386 405 405 405 8 0 36 20 62 45 26 25 52 45 58 45 5 0 22 14 38 30 16 17 38 30 49 30 11 0 30 10 42 21 13 12 34 27 46 34 29 16 158 81 178 89 8 3 35 17 59 31 24 14 52 25 62 25 20 0 96 37 105 51 3 5 19 9 35 9 16 0 40 7 52 15 13 8 39 14 59 13 22 -1 43 5 53 16 12 12 26 15 46 11 17 -4 40 0 60 11 20 10 53 16 85 15 35 0 56 4 64 14 19 23 744 22 786 0 16 -9 50 -14 76 -13 33 1 53 -4 66 -15 13 -12 28 -15 50 -11 21 4 40 1 57 -10 13 -9 42 -16 63 -16 23 0 45 -6 52 -15 7 -8 23 -15 36 -15 14 0 50 -13 81 -30 31 -16 68 -30 84 -30 15 0 30 -4 34 -10 3 -5 70 -41 150 -80 79 -40 151 -80 161 -91 9 -10 25 -19 34 -19 9 0 29 -13 45 -30 16 -16 36 -30 46 -30 9 0 31 -16 48 -36 17 -19 46 -41 64 -49 38 -16 407 -386 407 -407 0 -20 97 -111 110 -103 6 3 10 14 10 23 0 9 21 36 45 60 25 24 45 50 45 57 0 19 388 405 407 405 8 0 31 18 50 40 20 22 43 40 52 40 10 0 30 14 46 30 16 17 36 30 45 30 9 0 29 14 45 30 16 17 36 30 46 30 9 0 22 7 29 15 7 8 20 15 30 15 10 0 23 7 30 15 7 8 20 15 30 15 10 0 23 7 30 15 7 8 18 15 25 15 16 0 73 30 93 48 8 7 25 11 37 8 14 -4 28 0 35 9 7 8 20 15 30 15 10 0 23 7 30 15 7 8 27 15 45 15 18 0 38 7 45 15 7 9 29 15 55 15 26 0 48 6 55 15 8 9 30 15 60 15 30 0 52 6 60 15 9 10 32 15 75 15 43 0 66 5 75 15 11 13 67 15 390 15 323 0 379 -2 390 -15z"/>
 <path d="M3765 3898 c-3 -7 -4 -638 -3 -1403 l3 -1390 355 0 355 0 0 1400 0 1400 -353 3 c-277 2 -354 0 -357 -10z"/>
 <path d="M5044 3865 c-3 -8 3 -38 15 -67 11 -29 32 -84 46 -123 15 -38 32 -86 40 -105 8 -19 53 -141 100 -270 47 -129 91 -246 97 -260 6 -14 14 -36 18 -50 5 -14 18 -50 30 -80 11 -30 30 -82 41 -115 11 -33 25 -69 30 -80 5 -11 20 -54 33 -95 13 -41 29 -86 34 -100 31 -78 63 -166 92 -245 17 -49 38 -108 47 -130 8 -22 22 -58 30 -80 9 -22 21 -56 28 -75 8 -19 39 -105 70 -190 31 -85 62 -171 70 -190 20 -52 67 -179 120 -321 l47 -126 90 -7 c125 -8 700 -7 715 2 6 4 32 66 58 137 26 72 65 175 86 230 21 55 54 145 74 200 19 55 40 109 45 120 5 11 18 48 29 82 19 57 31 89 52 138 5 11 18 47 29 80 12 33 25 69 30 80 26 64 130 353 130 363 0 6 6 26 14 44 21 49 37 93 116 308 39 107 77 211 85 230 31 81 75 201 105 285 39 108 83 224 122 323 16 41 27 80 24 88 -5 12 -61 14 -358 12 l-352 -3 -18 -45 c-9 -25 -20 -54 -24 -65 -4 -11 -33 -96 -66 -190 -33 -93 -62 -181 -65 -195 -12 -52 8 -50 -523 -50 l-497 0 -18 43 c-34 83 -38 92 -45 122 -12 44 -89 268 -99 285 -5 9 -12 31 -16 50 -4 19 -13 38 -19 42 -6 4 -163 8 -349 8 -290 0 -338 -2 -343 -15z m1704 -1052 c2 -12 -9 -57 -23 -100 -15 -43 -31 -91 -35 -108 -5 -16 -49 -149 -100 -295 -50 -146 -100 -291 -110 -322 -11 -32 -20 -67 -20 -78 0 -38 -36 -23 -55 23 -28 67 -31 78 -85 239 -28 84 -55 162 -60 173 -9 22 -82 239 -99 295 -5 19 -21 66 -34 104 -14 39 -23 76 -20 83 4 11 67 13 322 11 l316 -3 3 -22z"/>
 </g>

</svg>